<svg width="35" height="35" viewBox="0 0 35 35" fill="none" xmlns="http://www.w3.org/2000/svg">
<g clip-path="url(#clip0)">
<path d="M15.5333 20.5536L21.1642 17.3105L15.5333 14.0675V20.5536Z" fill="black"/>
<path d="M17.6894 0C8.13056 0 0.378906 7.75165 0.378906 17.3105C0.378906 26.8694 8.13056 34.6211 17.6894 34.6211C27.2483 34.6211 35 26.8694 35 17.3105C35 7.75165 27.2483 0 17.6894 0ZM28.5059 17.3282C28.5059 17.3282 28.5059 20.8389 28.0606 22.5318C27.8109 23.4584 27.0803 24.189 26.1537 24.4383C24.4609 24.8839 17.6894 24.8839 17.6894 24.8839C17.6894 24.8839 10.9357 24.8839 9.22515 24.4206C8.29855 24.1713 7.56795 23.4404 7.31834 22.5138C6.87274 20.8389 6.87274 17.3105 6.87274 17.3105C6.87274 17.3105 6.87274 13.8001 7.31834 12.1073C7.56768 11.1807 8.31625 10.4321 9.22515 10.1828C10.918 9.73718 17.6894 9.73718 17.6894 9.73718C17.6894 9.73718 24.4609 9.73718 26.1537 10.2005C27.0803 10.4498 27.8109 11.1807 28.0606 12.1073C28.5239 13.8001 28.5059 17.3282 28.5059 17.3282Z" fill="black"/>
</g>
<defs>
<clipPath id="clip0">
<rect x="0.378906" width="34.6211" height="34.6211" fill="white"/>
</clipPath>
</defs>
</svg>
