<svg width="36" height="35" viewBox="0 0 36 35" fill="none" xmlns="http://www.w3.org/2000/svg">
<g clip-path="url(#clip0)">
<path d="M18.2065 0C8.47696 0 0.586884 7.75165 0.586884 17.3105C0.586884 26.8694 8.47696 34.6211 18.2065 34.6211C27.9361 34.6211 35.8262 26.8694 35.8262 17.3105C35.8262 7.75165 27.9361 0 18.2065 0ZM26.2515 13.4969C26.2593 13.6673 26.263 13.8384 26.263 14.0104C26.263 19.2607 22.1953 25.315 14.7563 25.3152H14.7566H14.7563C12.4724 25.3152 10.3471 24.6575 8.55735 23.5305C8.87379 23.5672 9.19588 23.5854 9.522 23.5854C11.4169 23.5854 13.1607 22.9504 14.545 21.8846C12.7746 21.8524 11.2819 20.7037 10.7668 19.1249C11.0133 19.1714 11.2669 19.1968 11.5268 19.1968C11.896 19.1968 12.2536 19.1479 12.5934 19.0568C10.7429 18.6928 9.34886 17.086 9.34886 15.162C9.34886 15.1441 9.34886 15.128 9.34939 15.1113C9.89436 15.409 10.5176 15.5881 11.1811 15.6082C10.0952 14.8963 9.38139 13.6794 9.38139 12.3009C9.38139 11.5729 9.58168 10.8909 9.92904 10.3038C11.9234 12.7079 14.9039 14.2891 18.2652 14.4552C18.1958 14.1641 18.16 13.8609 18.16 13.5492C18.16 11.3558 19.9713 9.57632 22.2047 9.57632C23.368 9.57632 24.4187 10.0594 25.1567 10.8318C26.0781 10.6532 26.9432 10.3225 27.7248 9.8674C27.4223 10.7948 26.7814 11.5729 25.9463 12.065C26.7645 11.9689 27.5441 11.7557 28.2687 11.4393C27.7275 12.2362 27.0411 12.9362 26.2515 13.4969Z" fill="black"/>
</g>
<defs>
<clipPath id="clip0">
<rect x="0.586884" width="35.2393" height="34.6211" fill="white"/>
</clipPath>
</defs>
</svg>
