<svg width="36" height="35" viewBox="0 0 36 35" fill="none" xmlns="http://www.w3.org/2000/svg">
<g clip-path="url(#clip0)">
<path d="M20.8937 34.3958C20.7495 34.4193 20.6047 34.441 20.4595 34.4608C20.6047 34.441 20.7495 34.4193 20.8937 34.3958Z" fill="black"/>
<path d="M21.24 34.3366C21.1711 34.3493 21.1021 34.3609 21.0332 34.3728C21.1021 34.3609 21.1711 34.3493 21.24 34.3366Z" fill="black"/>
<path d="M20.0728 34.5088C19.904 34.5278 19.7342 34.5447 19.5638 34.559C19.7342 34.5447 19.904 34.5278 20.0728 34.5088Z" fill="black"/>
<path d="M20.4053 34.4681C20.3242 34.479 20.2426 34.489 20.1613 34.4985C20.2426 34.489 20.3242 34.479 20.4053 34.4681Z" fill="black"/>
<path d="M21.7112 34.2431C21.6505 34.256 21.5894 34.269 21.5284 34.2814C21.5894 34.269 21.6505 34.256 21.7112 34.2431Z" fill="black"/>
<path d="M22.8808 33.9525C22.8317 33.9665 22.7826 33.9798 22.7334 33.9935C22.7826 33.9798 22.8317 33.9665 22.8808 33.9525Z" fill="black"/>
<path d="M22.5271 34.0492C22.4738 34.0632 22.4202 34.0775 22.3665 34.091C22.4202 34.0775 22.4738 34.0635 22.5271 34.0492Z" fill="black"/>
<path d="M22.0644 34.1649C22.0078 34.1781 21.9508 34.1905 21.8937 34.2032C21.9508 34.1905 22.0078 34.1781 22.0644 34.1649Z" fill="black"/>
<path d="M19.5582 34.5595C19.4671 34.5672 19.376 34.5741 19.2846 34.5801C19.376 34.5741 19.4671 34.5672 19.5582 34.5595Z" fill="black"/>
<path d="M35.4131 17.3105C35.4131 7.75165 27.6614 0 18.1026 0C8.54368 0 0.792023 7.75165 0.792023 17.3105C0.792023 26.8694 8.54368 34.6211 18.1026 34.6211C18.2043 34.6211 18.3054 34.619 18.4069 34.6171V21.1416H14.6878V16.8074H18.4069V13.6179C18.4069 9.91891 20.665 7.90565 23.9646 7.90565C25.5446 7.90565 26.9028 8.02345 27.2988 8.07602V11.9419H25.0235C23.2284 11.9419 22.8808 12.7951 22.8808 14.0469V16.8074H27.1731L26.6136 21.1416H22.8808V33.9523C30.1163 31.878 35.4131 25.212 35.4131 17.3105Z" fill="black"/>
<path d="M19.2463 34.5825C19.0661 34.5941 18.8852 34.6034 18.7037 34.6095C18.8852 34.6034 19.0661 34.5941 19.2463 34.5825Z" fill="black"/>
<path d="M18.6945 34.61C18.5989 34.6132 18.503 34.6155 18.4071 34.6171C18.503 34.6155 18.5989 34.6132 18.6945 34.61Z" fill="black"/>
</g>
<defs>
<clipPath id="clip0">
<rect x="0.792023" width="34.6211" height="34.6211" fill="white"/>
</clipPath>
</defs>
</svg>
