<svg width="35" height="35" viewBox="0 0 35 35" fill="none" xmlns="http://www.w3.org/2000/svg">
<g clip-path="url(#clip0)">
<path d="M20.6239 17.3105C20.6239 19.1405 19.1405 20.6239 17.3105 20.6239C15.4806 20.6239 13.9972 19.1405 13.9972 17.3105C13.9972 15.4806 15.4806 13.9972 17.3105 13.9972C19.1405 13.9972 20.6239 15.4806 20.6239 17.3105Z" fill="black"/>
<path d="M25.0593 11.4483C24.9 11.0167 24.6459 10.626 24.3157 10.3053C23.9951 9.97517 23.6047 9.72107 23.1728 9.56179C22.8226 9.42576 22.2964 9.26384 21.3273 9.21973C20.2789 9.17192 19.9646 9.16162 17.3105 9.16162C14.6562 9.16162 14.3419 9.17166 13.2938 9.21947C12.3247 9.26384 11.7982 9.42576 11.4483 9.56179C11.0164 9.72107 10.6257 9.97517 10.3053 10.3053C9.97516 10.626 9.72105 11.0164 9.56152 11.4483C9.42548 11.7985 9.26357 12.3249 9.21946 13.2941C9.17165 14.3422 9.16135 14.6565 9.16135 17.3108C9.16135 19.9649 9.17165 20.2792 9.21946 21.3275C9.26357 22.2967 9.42548 22.8228 9.56152 23.1731C9.72105 23.6049 9.97489 23.9953 10.3051 24.316C10.6257 24.6462 11.0161 24.9003 11.448 25.0596C11.7982 25.1958 12.3247 25.3578 13.2938 25.4019C14.3419 25.4497 14.6559 25.4597 17.3103 25.4597C19.9648 25.4597 20.2792 25.4497 21.327 25.4019C22.2961 25.3578 22.8226 25.1958 23.1728 25.0596C24.0397 24.7252 24.7249 24.04 25.0593 23.1731C25.1953 22.8228 25.3572 22.2967 25.4016 21.3275C25.4494 20.2792 25.4594 19.9649 25.4594 17.3108C25.4594 14.6565 25.4494 14.3422 25.4016 13.2941C25.3575 12.3249 25.1956 11.7985 25.0593 11.4483ZM17.3105 22.4147C14.4914 22.4147 12.2061 20.1297 12.2061 17.3105C12.2061 14.4914 14.4914 12.2063 17.3105 12.2063C20.1294 12.2063 22.4147 14.4914 22.4147 17.3105C22.4147 20.1297 20.1294 22.4147 17.3105 22.4147ZM22.6165 13.1974C21.9578 13.1974 21.4237 12.6633 21.4237 12.0045C21.4237 11.3458 21.9578 10.8117 22.6165 10.8117C23.2753 10.8117 23.8094 11.3458 23.8094 12.0045C23.8091 12.6633 23.2753 13.1974 22.6165 13.1974Z" fill="black"/>
<path d="M17.3105 0C7.75165 0 0 7.75165 0 17.3105C0 26.8694 7.75165 34.6211 17.3105 34.6211C26.8694 34.6211 34.6211 26.8694 34.6211 17.3105C34.6211 7.75165 26.8694 0 17.3105 0ZM27.1906 21.4086C27.1425 22.4668 26.9743 23.1892 26.7286 23.8215C26.2123 25.1568 25.1568 26.2123 23.8215 26.7286C23.1895 26.9743 22.4668 27.1423 21.4089 27.1906C20.3489 27.239 20.0103 27.2506 17.3108 27.2506C14.6111 27.2506 14.2727 27.239 13.2124 27.1906C12.1546 27.1423 11.4319 26.9743 10.7998 26.7286C10.1363 26.479 9.53564 26.0878 9.03906 25.582C8.5335 25.0857 8.14231 24.4848 7.8927 23.8215C7.64706 23.1895 7.4788 22.4668 7.43073 21.4089C7.38186 20.3487 7.3705 20.01 7.3705 17.3105C7.3705 14.6111 7.38186 14.2724 7.43046 13.2124C7.47854 12.1543 7.64653 11.4319 7.89218 10.7995C8.14179 10.1363 8.53324 9.53538 9.03906 9.03906C9.53538 8.53324 10.1363 8.14205 10.7995 7.89244C11.4319 7.64679 12.1543 7.4788 13.2124 7.43046C14.2724 7.38213 14.6111 7.3705 17.3105 7.3705C20.01 7.3705 20.3487 7.38213 21.4086 7.43073C22.4668 7.4788 23.1892 7.64679 23.8215 7.89218C24.4848 8.14179 25.0857 8.53324 25.5823 9.03906C26.0878 9.53564 26.4793 10.1363 26.7286 10.7995C26.9746 11.4319 27.1425 12.1543 27.1909 13.2124C27.2392 14.2724 27.2506 14.6111 27.2506 17.3105C27.2506 20.01 27.2392 20.3487 27.1906 21.4086Z" fill="black"/>
</g>
<defs>
<clipPath id="clip0">
<rect width="34.6211" height="34.6211" fill="white"/>
</clipPath>
</defs>
</svg>
